HIERARCHY
ROOT hip
{
	OFFSET 0.000000 0.000000 0.000000 
	CHANNELS 6 Xposition Yposition Zposition Xrotation Zrotation Yrotation
	JOINT abdomen
	{
		OFFSET 0.000000 3.402643 0.000000 
		CHANNELS 3 Xrotation Zrotation Yrotation
		JOINT chest
		{
			OFFSET 0.000000 8.438565 -0.680529 
			CHANNELS 3 Xrotation Zrotation Yrotation
			JOINT neck
			{
				OFFSET 0.000000 10.207942 -0.272212 
				CHANNELS 3 Xrotation Zrotation Yrotation
				JOINT head
				{
					OFFSET 0.000000 3.130431 0.000000 
					CHANNELS 3 Xrotation Zrotation Yrotation
					End Site
					{
						OFFSET 0.000000 3.130435 0.000000 
					}
				}
			}
			JOINT lCollar
			{
				OFFSET 3.470700 6.669187 -0.816635 
				CHANNELS 3 Yrotation Zrotation Xrotation
				JOINT lShldr
				{
					OFFSET 3.198488 0.000000 0.000000 
					CHANNELS 3 Zrotation Yrotation Xrotation
					JOINT lForeArm
					{
						OFFSET 10.139888 0.000000 0.000000 
						CHANNELS 3 Yrotation Zrotation Xrotation
						JOINT lHand
						{
							OFFSET 8.370511 0.000000 0.000000 
							CHANNELS 3 Zrotation Yrotation Xrotation
							End Site
							{
								OFFSET 4.083176 0.000000 0.000000 
							}
						}
					}
				}
			}
			JOINT rCollar
			{
				OFFSET -3.470700 6.669187 -0.816635 
				CHANNELS 3 Yrotation Zrotation Xrotation
				JOINT rShldr
				{
					OFFSET -3.198488 0.000000 0.000000 
					CHANNELS 3 Zrotation Yrotation Xrotation
					JOINT rForeArm
					{
						OFFSET -10.139888 0.000000 0.000000 
						CHANNELS 3 Yrotation Zrotation Xrotation
						JOINT rHand
						{
							OFFSET -8.370511 0.000000 0.000000 
							CHANNELS 3 Zrotation Yrotation Xrotation
							End Site
							{
								OFFSET -4.083176 0.000000 0.000000 
							}
						}
					}
				}
			}
		}
	}
	JOINT lThigh
	{
		OFFSET 5.308129 -1.633274 1.361059 
		CHANNELS 3 Xrotation Zrotation Yrotation
		JOINT lShin
		{
			OFFSET -2.041588 -20.007561 0.000000 
			CHANNELS 3 Xrotation Zrotation Yrotation
			JOINT lFoot
			{
				OFFSET 0.000000 -19.190928 -1.224953 
				CHANNELS 3 Xrotation Yrotation Zrotation
				End Site
				{
					OFFSET 0.000000 -2.449906 4.627600 
				}
			}
		}
	}
	JOINT rThigh
	{
		OFFSET -5.308129 -1.633274 1.361059 
		CHANNELS 3 Xrotation Zrotation Yrotation
		JOINT rShin
		{
			OFFSET 2.041588 -20.007561 0.000000 
			CHANNELS 3 Xrotation Zrotation Yrotation
			JOINT rFoot
			{
				OFFSET 0.000000 -19.190928 -1.224953 
				CHANNELS 3 Xrotation Yrotation Zrotation
				End Site
				{
					OFFSET 0.000000 -2.449906 4.627600 
				}
			}
		}
	}
}
MOTION
Frames: 16
Frame Time: 0.033333
-39.279285 4.173083 -46.586189 1.640625 15.810548 91.008522 29.726561 6.582031 6.601562 22.207029 4.228516 4.189453 -8.447267 0.000000 0.000000 19.755857 -6.386719 28.593750 -2.812500 -0.087891 -0.009766 -52.070313 13.466797 8.652344 -51.591797 -43.447266 5.221558 -9.941406 -50.683594 53.400646 2.802734 0.078125 -0.009779 55.410156 -18.037109 20.302736 48.945309 28.417967 7.285156 -14.550782 71.464844 50.537109 -1.054038 3.920646 10.169829 12.042736 6.829807 3.492444 6.222875 -4.785571 -7.023809 14.758092 -4.745502 -18.983730 5.998548 3.020458 -1.423962 -10.472980 -5.177878 -4.062860 
-39.278717 4.174442 -46.589474 1.640625 15.810548 91.008522 29.726561 6.582031 6.601562 22.382813 4.218750 4.199167 -8.447267 0.000000 0.000000 19.580078 -6.386719 28.261719 -2.812500 -0.087891 -0.009766 -52.070313 13.466797 8.652344 -51.591797 -43.447266 5.221558 -10.146484 -50.517582 53.410435 2.802734 0.078125 -0.009779 55.410156 -18.037109 20.302736 48.945309 28.417967 7.285156 -14.550782 71.464844 50.537109 -1.054325 3.902678 10.355426 12.053665 6.830380 3.492599 6.239154 -4.741773 -7.029804 14.758092 -4.745502 -18.983730 5.998549 3.020458 -1.423962 -10.472979 -5.177880 -4.062860 
-39.278152 4.175350 -46.591858 1.826172 15.810466 91.047577 29.726561 6.582031 6.601562 22.382813 4.062500 4.140625 -8.447267 0.000000 0.000000 19.394531 -6.220703 28.134768 -2.812500 -0.087891 -0.009766 -52.070313 13.466797 8.652344 -51.591797 -43.447266 5.221558 -10.146484 -50.517582 53.410435 2.802734 0.078125 -0.009779 55.400391 -17.861326 20.299742 48.945309 28.417967 7.285156 -14.550782 71.464844 50.537109 -1.054331 3.902677 10.355427 12.053666 6.830376 3.492599 6.137103 -4.850994 -7.060508 14.758098 -4.745491 -18.983727 6.013343 3.023241 -1.598786 -10.431709 -5.178134 -4.244399 
-39.283932 4.181015 -46.600471 1.826172 15.810466 91.047577 29.726561 6.582031 6.601562 22.558594 4.052734 4.150391 -8.447267 0.000000 0.000000 19.218750 -6.220703 27.977455 -2.812500 -0.087891 -0.009766 -52.060547 13.291017 8.654591 -51.591797 -43.447266 5.221558 -10.146484 -50.517582 53.410435 2.802734 0.078125 -0.009779 55.400391 -17.861326 20.299742 48.945309 28.417967 7.285156 -14.746092 71.455078 50.536602 -1.033405 3.711937 10.353088 12.075511 6.804826 3.647027 6.137672 -4.782755 -7.222706 14.967147 -4.755818 -18.971828 5.977233 2.648719 -1.623525 -10.508028 -5.121219 -4.037678 
-39.280991 4.186793 -46.614632 1.826172 15.810466 91.047577 29.726561 6.582031 6.601562 22.558594 4.052734 4.326172 -8.447267 0.000000 0.000000 19.042967 -6.054687 27.685549 -2.812500 -0.087891 -0.009766 -52.070313 13.291017 8.476562 -51.591797 -43.447266 5.221558 -10.146484 -50.517582 53.410435 2.802734 0.078125 -0.009779 55.390629 -17.685545 20.299770 48.945309 28.417967 7.285156 -14.746092 71.455078 50.536602 -1.033406 3.711937 10.353088 12.075512 6.804827 3.647026 6.325725 -4.850964 -7.232336 14.758096 -4.745493 -18.983727 5.992552 2.661589 -1.612648 -10.497683 -5.225443 -3.892532 
-39.272488 4.192458 -46.628910 1.816406 15.634766 90.869141 29.726561 6.582031 6.601562 22.548828 3.896484 4.257813 -8.447267 0.000000 0.000000 18.681641 -6.064453 27.538033 -2.812500 -0.087891 -0.009766 -52.060547 13.115233 8.478780 -51.591797 -43.447266 5.221558 -10.146484 -50.517582 53.410435 2.802734 0.078125 -0.009779 55.390629 -17.685545 20.299770 48.945309 28.417967 7.285156 -14.746092 71.455078 50.536602 -1.405559 3.766458 10.349027 12.291847 6.763866 3.481411 6.304062 -4.654393 -7.191772 14.573796 -4.745522 -18.808393 6.135327 2.737651 -1.435064 -10.575274 -5.422253 -4.004448 
-39.261162 4.198123 -46.645901 1.816406 15.634766 90.869141 29.726561 6.582031 6.601562 22.548828 3.896484 4.257813 -8.447267 0.000000 0.000000 18.505859 -5.888672 27.235327 -2.812500 -0.087891 -0.009766 -52.060547 13.115233 8.478780 -51.591797 -43.447266 5.221558 -10.146484 -50.517582 53.410435 2.802734 0.078125 -0.009779 55.390625 -17.509766 20.126951 48.867191 28.300781 7.387429 -14.550782 71.464844 50.537109 -1.405559 3.766458 10.349027 12.291847 6.763866 3.481411 6.195646 -4.739756 -7.194999 14.495634 -4.921142 -19.034101 6.130209 2.699874 -1.066226 -10.537816 -5.145563 -3.845891 
-39.249825 4.203787 -46.660183 2.001953 15.458984 90.910805 29.726561 6.582031 6.601562 22.548828 3.730469 4.365186 -8.447267 0.000000 0.000000 18.505859 -5.888672 27.235327 -2.812500 -0.087891 -0.009766 -52.236324 13.105468 8.293230 -51.591797 -43.447266 5.221558 -10.146484 -50.517582 53.410435 2.802734 0.078125 -0.009779 55.390625 -17.509766 20.126951 48.867191 28.300781 7.387429 -14.550782 71.464844 50.537109 -1.394793 3.742957 10.523994 12.164010 6.626805 3.671896 5.990198 -5.011818 -6.927135 14.495632 -4.921137 -19.034103 6.173368 2.638343 -1.241128 -10.449696 -4.872274 -3.945055 
-39.238384 4.209452 -46.677284 2.001953 15.458984 90.735023 29.726561 6.582031 6.601562 22.548828 3.730469 4.365186 -8.447267 0.000000 0.000000 18.330078 -5.888671 27.255857 -2.812500 -0.087891 -0.009766 -52.236324 13.105468 8.293230 -51.455078 -43.339840 5.429688 -10.146484 -50.517582 53.410435 2.802734 0.078125 -0.009779 55.390625 -17.509766 19.951170 48.867191 28.300781 7.387429 -14.746092 71.455078 50.360817 -1.386525 3.533734 10.698565 12.187672 6.594997 3.807007 6.045237 -4.954630 -6.915212 14.213397 -5.077912 -18.881592 6.173409 2.639643 -1.260594 -10.587346 -5.051773 -3.835340 
-39.224220 4.215230 -46.694279 2.001953 15.283204 90.722656 29.726561 6.582031 6.601562 22.548828 3.730469 4.365186 -8.447267 0.000000 0.000000 18.330078 -5.888671 27.255857 -2.812500 -0.087891 -0.009766 -52.236324 13.105468 8.293230 -51.455078 -43.339840 5.429688 -10.146484 -50.517582 53.410435 2.802734 0.078125 -0.009779 55.566410 -17.500000 19.762690 48.691406 28.378906 7.475827 -14.746092 71.455078 50.360817 -1.386527 3.533733 10.698565 12.187676 6.594991 3.807006 5.982153 -4.923069 -7.093682 14.213398 -5.077910 -18.881592 6.173410 2.639640 -1.260594 -10.481962 -4.894454 -3.741267 
-39.207119 4.218063 -46.711391 2.001953 15.283204 90.722656 29.726561 6.582031 6.601562 22.363281 3.574219 4.462891 -8.447267 0.000000 0.000000 18.330078 -5.888671 27.255857 -2.812500 -0.087891 -0.009766 -52.236324 13.105468 8.293230 -51.455078 -43.339840 5.429688 -10.146484 -50.517582 53.410435 2.802734 0.078125 -0.009779 55.576172 -17.500000 19.589842 48.691406 28.378906 7.475827 -14.746092 71.455078 50.536602 -1.386526 3.533733 10.698565 12.187676 6.594992 3.807006 6.008171 -4.927076 -7.092947 14.241612 -5.458097 -18.778507 6.446074 2.892905 -1.243764 -10.603355 -5.428888 -3.814913 
-39.190113 4.218063 -46.722725 2.001953 15.283204 90.546875 29.726561 6.582031 6.601562 22.363281 3.574219 4.462891 -8.447267 0.000000 0.000000 18.154297 -6.074219 27.246094 -2.812500 -0.087891 -0.009766 -52.236324 13.105468 8.293230 -51.455078 -43.339840 5.429688 -10.332031 -50.527344 53.427734 2.802734 0.078125 -0.009779 55.751957 -17.500000 19.586906 48.701172 28.398436 7.304687 -14.746092 71.455078 50.360817 -1.386100 3.356503 10.511758 12.195167 6.598379 4.002259 5.832335 -4.858397 -7.082377 14.241612 -5.458097 -18.778507 6.446072 2.892913 -1.243764 -10.492732 -5.284161 -3.726732 
-39.173008 4.218063 -46.731327 2.001953 15.283204 90.546875 29.726561 6.582031 6.601562 22.363281 3.574219 4.462891 -8.447267 0.000000 0.000000 18.154297 -6.074219 27.246094 -2.812500 -0.087891 -0.009766 -52.236324 13.105468 8.293230 -51.455078 -43.339840 5.429688 -10.332031 -50.527344 53.427734 2.802734 0.078125 -0.009779 55.751957 -17.500000 19.411127 48.701172 28.398436 7.304687 -14.746092 71.455078 50.360817 -1.228918 3.439997 10.334063 11.999778 6.588611 3.997653 5.785653 -4.819002 -7.277447 14.434773 -5.448206 -18.952986 6.449584 2.885179 -1.244025 -10.693289 -5.341370 -3.560996 
-39.158733 4.220895 -46.739830 2.001953 15.283204 90.546875 29.726561 6.582031 6.601562 22.363281 3.574219 4.462891 -8.447267 0.000000 0.000000 18.154297 -6.074219 27.246094 -2.812500 -0.087891 -0.009766 -52.236328 12.929688 8.293201 -51.464844 -43.349609 5.260611 -10.332031 -50.527344 53.603516 2.802734 0.078125 -0.009779 55.751957 -17.500000 19.411127 48.623047 28.271484 7.495374 -14.746092 71.455078 50.360817 -1.228918 3.439997 10.334063 12.074826 6.801928 3.832654 5.687355 -4.482266 -7.164957 14.626347 -5.439436 -19.127308 6.449347 2.885043 -1.234277 -10.606434 -5.187802 -3.481269 
-39.144569 4.220895 -46.751163 2.001953 15.283204 90.546875 29.726561 6.582031 6.601562 22.363281 3.574219 4.287110 -8.447267 0.000000 0.000000 18.154297 -5.898438 27.451168 -2.812500 -0.087891 -0.009766 -52.236328 12.929688 8.293201 -51.464844 -43.349609 5.260611 -10.527343 -50.537109 53.605743 2.802734 0.078125 -0.009779 55.751957 -17.500000 19.235346 48.623047 28.271484 7.495374 -14.746092 71.455078 50.360817 -1.033047 3.154945 10.310056 12.074827 6.801925 3.832654 5.666378 -4.286226 -7.092651 14.626347 -5.439440 -19.127308 6.253844 2.865242 -1.237663 -10.627830 -4.775278 -3.301830 
-39.124626 4.223724 -46.759773 2.001953 15.283204 90.371094 29.726561 6.582031 6.601562 22.363281 3.574219 4.287110 -8.447267 0.000000 0.000000 18.154297 -5.898438 27.451168 -2.812500 -0.087891 -0.009766 -52.236328 12.929688 8.293201 -51.464844 -43.349609 5.260611 -10.527343 -50.537109 53.605743 2.802734 0.078125 -0.009779 55.937496 -17.490234 19.228516 48.623047 28.271484 7.495374 -14.550782 71.464844 50.361324 -1.034736 3.171664 10.134518 12.074830 6.801919 3.832652 5.782785 -4.193069 -7.055688 14.826565 -5.457948 -19.317631 5.985612 2.651886 -1.594034 -10.650579 -4.295201 -3.251462 
